<svg xmlns="http://www.w3.org/2000/svg" viewBox="0 0 1200 630" width="1200" height="630">
  <defs>
    <linearGradient id="bg" x1="0%" y1="0%" x2="100%" y2="100%">
      <stop offset="0%" stop-color="#0f172a"/><stop offset="50%" stop-color="#1a1640"/><stop offset="100%" stop-color="#0f172a"/>
    </linearGradient>
    <linearGradient id="acc" x1="0%" y1="0%" x2="100%" y2="100%">
      <stop offset="0%" stop-color="#6366f1"/><stop offset="100%" stop-color="#06b6d4"/>
    </linearGradient>
    <radialGradient id="glow" cx="50%" cy="45%" r="55%">
      <stop offset="0%" stop-color="#6366f1" stop-opacity="0.2"/><stop offset="100%" stop-color="#6366f1" stop-opacity="0"/>
    </radialGradient>
  </defs>
  <rect width="1200" height="630" fill="url(#bg)"/>
  <ellipse cx="600" cy="350" rx="400" ry="250" fill="url(#glow)"/>

  <!-- Leaderboard panel -->
  <rect x="300" y="150" width="600" height="360" rx="16" fill="#12102e" stroke="#6366f1" stroke-width="1" opacity="0.7"/>
  <text x="330" y="192" font-family="system-ui, sans-serif" font-size="14" font-weight="700" fill="#a5b4fc" letter-spacing="1">AI BRAND MONITORING TOOLS</text>

  <!-- Rank rows -->
  <g font-family="system-ui, sans-serif">
    <rect x="326" y="214" width="548" height="46" rx="10" fill="url(#acc)" opacity="0.9"/>
    <text x="352" y="242" font-size="16" font-weight="800" fill="#ffffff">1</text>
    <text x="386" y="242" font-size="16" font-weight="700" fill="#ffffff">Livesov</text>
    <text x="700" y="242" font-size="13" fill="#e0e7ff">5 platforms - citations - export</text>

    <rect x="326" y="270" width="548" height="40" rx="10" fill="#1e1b4b" opacity="0.7"/>
    <text x="352" y="295" font-size="15" font-weight="700" fill="#cbd5e1">2</text>
    <text x="386" y="295" font-size="15" fill="#cbd5e1">Tool B</text>
    <rect x="760" y="282" width="90" height="16" rx="8" fill="#334155"/>

    <rect x="326" y="320" width="548" height="40" rx="10" fill="#1e1b4b" opacity="0.55"/>
    <text x="352" y="345" font-size="15" font-weight="700" fill="#94a3b8">3</text>
    <text x="386" y="345" font-size="15" fill="#94a3b8">Tool C</text>
    <rect x="760" y="332" width="70" height="16" rx="8" fill="#334155"/>

    <rect x="326" y="370" width="548" height="40" rx="10" fill="#1e1b4b" opacity="0.4"/>
    <text x="352" y="395" font-size="15" font-weight="700" fill="#94a3b8">4</text>
    <text x="386" y="395" font-size="15" fill="#94a3b8">Tool D</text>
    <rect x="760" y="382" width="55" height="16" rx="8" fill="#334155"/>

    <rect x="326" y="420" width="548" height="40" rx="10" fill="#1e1b4b" opacity="0.3"/>
    <text x="352" y="445" font-size="15" font-weight="700" fill="#64748b">5</text>
    <text x="386" y="445" font-size="15" fill="#64748b">Tool E</text>
    <rect x="760" y="432" width="40" height="16" rx="8" fill="#334155"/>
  </g>

  <text x="600" y="80" text-anchor="middle" font-family="system-ui, -apple-system, sans-serif" font-size="42" font-weight="700" fill="white">The 7 Best AI Brand Monitoring Tools</text>
  <text x="600" y="565" text-anchor="middle" font-family="system-ui, -apple-system, sans-serif" font-size="17" fill="#94a3b8" letter-spacing="2">TESTED AND RANKED FOR 2026</text>
</svg>
